<svg xmlns="http://www.w3.org/2000/svg" viewBox="0 0 64 64" fill="none">
  <!-- Background circle with gradient -->
  <circle cx="32" cy="32" r="30" fill="url(#gradient)"/>
  
  <!-- Briefcase icon -->
  <path d="M20 24C20 21.7909 21.7909 20 24 20H40C42.2091 20 44 21.7909 44 24V28H48C50.2091 28 52 29.7909 52 32V48C52 50.2091 50.2091 52 48 52H16C13.7909 52 12 50.2091 12 48V32C12 29.7909 13.7909 28 16 28H20V24Z" fill="white" opacity="0.95"/>
  <path d="M20 28H44V24C44 22.8954 43.1046 22 42 22H22C20.8954 22 20 22.8954 20 24V28Z" fill="white" opacity="0.8"/>
  <rect x="28" y="28" width="8" height="4" fill="white" opacity="0.6"/>
  
  <!-- Sparkle/AI element -->
  <g transform="translate(40, 16)">
    <path d="M8 0L9.5 5.5L15 7L9.5 8.5L8 14L6.5 8.5L1 7L6.5 5.5L8 0Z" fill="white" opacity="0.9"/>
    <circle cx="8" cy="7" r="1.5" fill="url(#gradient)"/>
  </g>
  
  <!-- Gradient definition -->
  <defs>
    <linearGradient id="gradient" x1="0%" y1="0%" x2="100%" y2="100%">
      <stop offset="0%" style="stop-color:#0EA5E9;stop-opacity:1" />
      <stop offset="100%" style="stop-color:#06B6D4;stop-opacity:1" />
    </linearGradient>
  </defs>
</svg>

